<?xml version="1.0" encoding="UTF-8"?><svg id="Artwork" xmlns="http://www.w3.org/2000/svg" viewBox="0 0 479.74 68.04"><defs><style>.cls-1{fill:#173e80;}</style></defs><path class="cls-1" d="m206.88,32.54h-30.72v11.2h11.43c-3.14,4.74-8.56,7.88-14.67,7.88-9.73,0-17.62-7.88-17.62-17.62s7.88-17.62,17.62-17.62c5.76,0,10.9,2.77,14.12,7.09l12.6-10.5C193.4,5.09,183.77,0,172.94,0,159.82,0,148.41,7.46,142.75,18.36V1.72h-16.69l-22.58,27.05L80.89,1.72h-16.69v16.37l-1.9-2.84C55.99,5.71,45.41.02,33.98.02,15.25.02,0,15.27,0,34.01s15.25,33.98,33.98,33.98c11.43,0,22.01-5.69,28.32-15.22l1.9-2.84v16.37h16.67V27.45l22.58,27.05,22.58-27.05v38.85h16.69v-16.62c5.66,10.9,17.07,18.36,30.19,18.36,18.79,0,34.01-15.22,34.01-34.01,0-.5,0-1-.03-1.47l-.03-.02ZM33.96,51.65c-9.73,0-17.64-7.91-17.64-17.62s7.91-17.64,17.64-17.64,17.62,7.91,17.62,17.64-7.91,17.62-17.62,17.62Z"/><polygon class="cls-1" points="241.02 56.87 230.52 43.82 227.84 43.82 227.84 66.28 231.17 66.28 231.17 50.76 241.03 62.85 250.86 50.72 250.88 66.28 254.21 66.28 254.21 43.82 251.53 43.82 241.02 56.87"/><polygon class="cls-1" points="264.33 56.48 275.3 56.48 275.3 53.3 264.33 53.3 264.33 47.03 276.61 47.03 276.61 43.82 260.97 43.82 260.97 66.28 277.05 66.28 277.05 63.07 264.33 63.07 264.33 56.48"/><path class="cls-1" d="m298.25,45.25h0c-1.79-.94-3.86-1.42-6.13-1.42h-9.08v22.46h9.08c2.28,0,4.35-.48,6.13-1.43,1.8-.96,3.22-2.31,4.24-4.01,1-1.7,1.51-3.64,1.51-5.79s-.51-4.08-1.51-5.79c-1-1.7-2.43-3.05-4.24-4.02Zm1.33,13.99c-.69,1.19-1.69,2.14-2.97,2.8-1.31.68-2.86,1.03-4.61,1.03h-5.6v-16.03h5.6c1.74,0,3.3.35,4.61,1.03,1.29.67,2.28,1.61,2.98,2.8.7,1.21,1.05,2.61,1.05,4.18s-.35,2.98-1.06,4.19Z"/><rect class="cls-1" x="309.69" y="43.82" width="3.37" height="22.46"/><path class="cls-1" d="m327.67,43.82h0l-10.34,22.46h3.67l2.62-5.79h10.75l2.65,5.79h3.66l-10.33-22.46h-2.68Zm-2.63,13.54h0l3.95-8.72,3.97,8.72h-7.92Z"/><path class="cls-1" d="m402.15,56.43h0c.95-1.28,1.43-2.85,1.43-4.66,0-2.45-.86-4.41-2.55-5.82-1.64-1.36-3.89-2.05-6.69-2.05h-8.32v22.46h3.36v-6.73h4.96c.48,0,1-.03,1.57-.09l4.87,6.82h3.99l-5.49-7.68c1.17-.53,2.14-1.28,2.86-2.24Zm-7.79,0h-4.96v-9.33h4.96c1.96,0,3.46.42,4.44,1.24.93.78,1.4,1.93,1.4,3.42s-.47,2.64-1.4,3.42c-.98.83-2.48,1.25-4.44,1.25Z"/><path class="cls-1" d="m452.79,56.62h0c0,2.29-.5,3.99-1.49,5.06-.96,1.05-2.42,1.58-4.32,1.58s-3.38-.53-4.35-1.58c-.99-1.07-1.49-2.77-1.49-5.06v-12.73h-3.36v12.79c0,3.13.81,5.58,2.42,7.26,1.62,1.7,3.89,2.56,6.75,2.56s5.14-.86,6.76-2.56c1.62-1.68,2.44-4.12,2.44-7.27v-12.79h-3.36v12.73Z"/><path class="cls-1" d="m477.2,45.95h0c-1.64-1.37-3.89-2.06-6.69-2.06h-8.32v22.46h3.37v-6.73h4.95c2.8,0,5.05-.69,6.69-2.06,1.69-1.41,2.55-3.35,2.55-5.79s-.86-4.41-2.55-5.82Zm-2.24,9.22c-.98.81-2.48,1.22-4.44,1.22h-4.95v-9.3h4.95c1.96,0,3.46.42,4.44,1.24.93.78,1.4,1.93,1.4,3.42s-.46,2.63-1.4,3.41h0Z"/><path class="cls-1" d="m420.67,43.74c-6.28,0-11.38,5.1-11.38,11.38s5.1,11.38,11.38,11.38,11.38-5.1,11.38-11.38-5.1-11.38-11.38-11.38Zm0,19.51c-4.48,0-8.13-3.65-8.13-8.13s3.65-8.14,8.13-8.14,8.13,3.65,8.13,8.14-3.65,8.13-8.13,8.13Z"/><path class="cls-1" d="m241.03,1.32c-9.14,0-16.57,7.44-16.57,16.57s7.44,16.57,16.57,16.57,16.57-7.44,16.57-16.57-7.44-16.57-16.57-16.57Zm0,25.9c-5.14,0-9.34-4.19-9.34-9.34s4.19-9.33,9.34-9.33,9.33,4.19,9.33,9.33-4.19,9.34-9.33,9.34Z"/><path class="cls-1" d="m417.42,1.32c-9.14,0-16.58,7.44-16.58,16.57s7.44,16.57,16.58,16.57,16.57-7.44,16.57-16.57-7.44-16.57-16.57-16.57Zm0,25.9c-5.14,0-9.34-4.19-9.34-9.34s4.19-9.33,9.34-9.33,9.33,4.19,9.33,9.33-4.19,9.34-9.33,9.34Z"/><polygon class="cls-1" points="336 23.4 318.99 1.76 311.75 1.76 311.75 34.02 318.99 34.02 318.99 12.4 336 34.05 343.24 34.05 343.24 1.75 336 1.75 336 23.4"/><rect class="cls-1" x="351.65" y="1.76" width="7.25" height="32.26"/><path class="cls-1" d="m395.34,28.49l-5.56-4.64c-1.79,2.15-4.37,3.37-7.16,3.37-5.14,0-9.34-4.19-9.34-9.34s4.19-9.33,9.34-9.33c2.8,0,5.38,1.22,7.16,3.37l5.56-4.64c-.36-.42-.73-.84-1.12-1.22-3.13-3.07-7.25-4.76-11.6-4.76-1.86,0-3.7.31-5.46.93-6.65,2.32-11.12,8.61-11.12,15.64s4.47,13.32,11.12,15.64h0c1.76.63,3.6.93,5.46.93,4.36,0,8.48-1.69,11.6-4.76.39-.39.76-.79,1.12-1.22Z"/><path class="cls-1" d="m370.59,54.19h0v2.82h6.17c-.04.16-.08.32-.13.48,0,0,0,0,0,.01,0,.03-.03.06-.04.09-1.06,3.28-4.15,5.55-7.62,5.55-4.42,0-8.02-3.6-8.02-8.02s3.59-8.02,8.02-8.02c2.48,0,4.78,1.13,6.32,3.09l.43.55,2.58-2.15-.4-.51c-2.18-2.75-5.43-4.32-8.92-4.32-6.28,0-11.38,5.1-11.38,11.38s5.1,11.38,11.38,11.38c5.62,0,10.34-4.03,11.22-9.57.1-.66.15-1.25.15-1.82l-.03-.92h-9.73Z"/><polygon class="cls-1" points="271.06 34.02 271.07 34.02 271.07 12.42 283.63 27.67 283.63 27.67 283.64 27.67 296.19 12.42 296.19 34.02 296.21 34.02 303.43 34.02 303.44 34.02 303.44 1.76 296.2 1.76 296.19 1.76 283.63 17.82 271.07 1.76 271.06 1.76 263.83 1.76 263.83 34.02 263.84 34.02 271.06 34.02"/><polygon class="cls-1" points="472.51 1.76 459.94 17.83 447.38 1.76 440.13 1.76 440.14 34.02 447.38 34.02 447.38 12.4 459.94 27.67 472.51 12.4 472.51 34.02 479.74 34.02 479.74 1.76 472.51 1.76"/></svg>